<svg width="24" height="25" viewBox="0 0 24 25" fill="none" xmlns="http://www.w3.org/2000/svg">
<path d="M12 2.51416C6.47715 2.51416 2 6.99131 2 12.5142C2 18.037 6.47715 22.5142 12 22.5142C17.5228 22.5142 22 18.037 22 12.5142C22 6.99131 17.5228 2.51416 12 2.51416Z" stroke="#301B0A" stroke-width="2" stroke-linecap="round" stroke-linejoin="round"/>
<path d="M4.27148 18.8596C4.27148 18.8596 6.5005 16.0139 12.0005 16.0139C17.5005 16.0139 19.7296 18.8596 19.7296 18.8596" stroke="#301B0A" stroke-width="2" stroke-linecap="round" stroke-linejoin="round"/>
<path d="M12.002 12.5144C13.6589 12.5144 15.002 11.1713 15.002 9.5144C15.002 7.85755 13.6589 6.5144 12.002 6.5144C10.3451 6.5144 9.00195 7.85755 9.00195 9.5144C9.00195 11.1713 10.3451 12.5144 12.002 12.5144Z" stroke="#301B0A" stroke-width="2" stroke-linecap="round" stroke-linejoin="round"/>
</svg>
