<svg width="24" height="25" viewBox="0 0 24 25" fill="none" xmlns="http://www.w3.org/2000/svg">
<path d="M14.001 12.5161L10.501 14.5161V10.5161L14.001 12.5161Z" fill="#301B0A" stroke="#301B0A" stroke-width="2" stroke-linecap="round" stroke-linejoin="round"/>
<path d="M2 13.2222V11.8071C2 8.9117 2 7.46404 2.90549 6.53257C3.81099 5.6011 5.23656 5.56078 8.08769 5.48014C9.43873 5.44193 10.8188 5.41455 12 5.41455C13.1812 5.41455 14.5613 5.44193 15.9123 5.48014C18.7634 5.56078 20.189 5.6011 21.0945 6.53257C22 7.46404 22 8.9117 22 11.8071V13.2222C22 16.1175 22 17.5651 21.0945 18.4965C20.189 19.428 18.7635 19.4684 15.9124 19.5491C14.5613 19.5873 13.1812 19.6147 12 19.6147C10.8188 19.6147 9.43867 19.5873 8.0876 19.5491C5.23651 19.4684 3.81097 19.428 2.90548 18.4965C2 17.5651 2 16.1175 2 13.2222Z" stroke="#301B0A" stroke-width="2"/>
</svg>
