<svg width="48" height="48" fill="none" xmlns="http://www.w3.org/2000/svg"><path d="M22.48 7.449c-.242.039-.733.214-1.091.39a3.877 3.877 0 0 0-2.07 2.536c-.1.387-.119 1.41-.119 6.562v6.103H1.04v2.48H19.2v5.823c0 4.904.019 5.896.119 6.282a3.87 3.87 0 0 0 2.07 2.535c1.188.582 2.403.6 3.491.052.844-.424 19.696-12.98 20.135-13.41.442-.432.869-1.174 1.034-1.791.14-.527.14-1.495 0-2.022-.159-.598-.59-1.357-1.004-1.771-.199-.199-1.352-1.017-2.563-1.818-1.211-.801-5.604-3.716-9.762-6.479s-7.74-5.104-7.96-5.202c-.403-.179-1.289-.367-1.647-.35a7.921 7.921 0 0 0-.633.08m1.364 2.593c.48.248 19.325 12.823 19.491 13.005.483.534.465 1.4-.04 1.944-.118.127-1.421 1.03-2.895 2.007-1.474.977-5.804 3.851-9.622 6.386-4.376 2.906-7.064 4.644-7.273 4.7-.425.115-.897-.009-1.299-.34-.566-.467-.526.58-.526-13.744 0-14.313-.039-13.291.519-13.735.535-.427 1.101-.504 1.645-.223" fill-rule="evenodd" fill="#000"/></svg>