<svg width="24" height="25" fill="none" xmlns="http://www.w3.org/2000/svg"><path d="M6.198 1.13a.608.608 0 0 0-.277.27c-.094.171-.1.22-.115.97l-.015.79h-.772c-1.111 0-1.541.098-2.118.484a3.16 3.16 0 0 0-1.042 1.171c-.321.649-.299.046-.298 8.265.001 8.23-.022 7.618.305 8.28.16.324.243.436.57.762.328.327.44.41.764.568.682.333.017.31 8.8.31 8.783 0 8.118.023 8.8-.31.326-.159.435-.24.762-.568.435-.436.665-.823.799-1.347.077-.3.079-.479.079-7.671 0-6.32-.008-7.404-.059-7.644-.089-.426-.381-.969-.71-1.321-.65-.696-1.341-.979-2.392-.979-.718 0-.932.08-1.105.411-.109.208-.094.688.029.909.158.286.285.336.937.363.37.015.631.047.769.093.276.092.577.366.719.656l.112.228.011 1.87.012 1.87H3.24V7.742c0-1.755.003-1.827.085-2.05.061-.168.148-.294.312-.455.334-.33.461-.365 1.388-.387l.765-.018.019.794c.02.84.042.957.22 1.143.135.141.332.205.631.205s.496-.064.631-.205c.211-.221.208-.186.221-2.62.012-2.337-.003-2.633-.144-2.829-.128-.176-.39-.28-.708-.28-.214 0-.327.022-.462.09m8.616-.046c-.16.046-.357.269-.412.465-.023.083-.042.48-.042.881v.73l-2.09.002c-2.199.002-2.28.008-2.478.184-.206.183-.298.685-.187 1.018a.79.79 0 0 0 .355.41c.07.032.752.052 2.24.066l2.14.02.02.8c.023.933.052 1.034.351 1.209.153.089.228.106.487.106.398 0 .619-.11.753-.375l.091-.18-.011-2.46-.011-2.46-.092-.147c-.131-.212-.365-.314-.711-.309-.152.002-.334.02-.403.04m5.946 14.654v4.499l-.086.23c-.11.294-.406.612-.686.739l-.208.094H4.22l-.208-.094a1.467 1.467 0 0 1-.686-.739l-.086-.23V11.24h17.52v4.498" fill-rule="evenodd" fill="#000"/></svg>