<svg width="24" height="24" fill="none" xmlns="http://www.w3.org/2000/svg"><path d="M6.636 1.07c-.226.116-2.213 1.594-2.41 1.794-.281.284-.342.649-.167.998.112.224.376.512.558.609.18.095.525.084.733-.024.199-.104 2.348-1.71 2.478-1.852.303-.331.266-.849-.091-1.272-.313-.371-.698-.459-1.101-.253m9.921.003a1.32 1.32 0 0 0-.503.587c-.152.325-.106.691.118.935.13.142 2.279 1.748 2.478 1.852.208.108.553.119.733.024.182-.097.446-.385.558-.609.175-.349.114-.714-.167-.999-.211-.214-2.312-1.766-2.485-1.835-.263-.105-.52-.089-.732.045m-5.464 1.968c-4.471.433-8.104 3.74-8.915 8.113-.529 2.851.176 5.72 1.976 8.046.339.437 1.209 1.307 1.646 1.646 2.441 1.889 5.453 2.566 8.44 1.895 3.692-.829 6.67-3.808 7.501-7.501.188-.838.236-1.286.236-2.24 0-.954-.048-1.402-.236-2.24-.467-2.075-1.676-4.054-3.304-5.406A10.12 10.12 0 0 0 13.24 3.08c-.462-.06-1.697-.083-2.147-.039m1.739 2.001a8.172 8.172 0 0 1 4.208 1.747c.354.286 1.027.972 1.286 1.311A8.123 8.123 0 0 1 20 13a8.1 8.1 0 0 1-1.789 5.04 10.043 10.043 0 0 1-1.391 1.344 8.014 8.014 0 0 1-9.62.018c-.384-.285-1.1-.976-1.411-1.361A7.99 7.99 0 0 1 4.8 9.529a7.375 7.375 0 0 1 1.459-2.083 7.632 7.632 0 0 1 2.267-1.645 8.024 8.024 0 0 1 4.306-.759m-1.213 2.014c-.241.075-.371.176-.491.38l-.108.184v5.76l.1.178a.86.86 0 0 0 .297.3l.197.122 2.778.011c3.106.013 3.079.015 3.346-.252.344-.344.345-1.134.001-1.478-.257-.256-.307-.261-2.646-.261H13V9.907c0-2.339-.005-2.389-.261-2.646-.234-.234-.735-.326-1.12-.205" fill-rule="evenodd" fill="#000"/></svg>