<svg width="36" height="37" fill="none" xmlns="http://www.w3.org/2000/svg"><path d="M4.29 6.088c-1.584.351-2.864 1.627-3.184 3.176-.076.365-.086 1.666-.072 9.126l.016 8.7.161.44c.239.655.505 1.064 1.04 1.599.535.535.944.801 1.599 1.04l.44.161h27.42l.44-.161c1.399-.511 2.46-1.699 2.744-3.073.076-.365.086-1.662.072-9.096l-.016-8.67-.163-.48c-.414-1.219-1.406-2.208-2.658-2.651l-.479-.169-13.5-.011c-11.029-.008-13.566.004-13.86.069m27.063 1.974c.54.144.973.453 1.278.914.393.592.372.055.355 9.336l-.016 8.418-.161.344c-.206.44-.675.909-1.115 1.115l-.344.161H4.647l-.4-.197a2.284 2.284 0 0 1-1.06-1.093l-.157-.33-.016-8.418c-.017-9.281-.038-8.744.355-9.336a2.195 2.195 0 0 1 1.251-.911c.414-.114 26.303-.117 26.733-.003m-21.85 4.432c-.255.199-.368.347-.478.628-.126.32-.076.611.142.842.15.158 8.157 5.791 8.454 5.947.169.089.589.089.758 0 .072-.038 1.995-1.373 4.274-2.968 4.335-3.034 4.41-3.093 4.406-3.511-.003-.24-.208-.611-.47-.847-.211-.191-.291-.225-.523-.225-.151 0-.333.031-.405.069-.072.038-1.825 1.254-3.896 2.703L18 17.766l-3.765-2.634c-2.071-1.449-3.824-2.665-3.896-2.703-.224-.118-.643-.085-.836.065" fill-rule="evenodd" fill="#000"/></svg>