<svg width="24" height="25" fill="none" xmlns="http://www.w3.org/2000/svg"><path d="M10.9 1.085c-2.597.246-5.178 1.534-6.964 3.475C1.9 6.772.884 9.603 1.043 12.62c.147 2.79 1.319 5.349 3.344 7.301 1.727 1.665 3.823 2.665 6.293 3.004.499.068 2.141.068 2.64 0 2.067-.284 3.866-1.031 5.476-2.276.523-.404 1.536-1.439 1.948-1.989 1.496-2 2.221-4.173 2.222-6.66 0-2.06-.519-3.94-1.561-5.657-1.809-2.981-4.927-4.941-8.365-5.26a15.438 15.438 0 0 0-2.14.002m2.46 1.737a9.452 9.452 0 0 1 3.7 1.409A9.342 9.342 0 0 1 20.32 7.9a9.038 9.038 0 0 1 .96 4.112 9.219 9.219 0 0 1-1.855 5.578c-.396.53-1.315 1.455-1.828 1.838a9.407 9.407 0 0 1-4.377 1.796c-.64.089-1.798.09-2.44 0a9.257 9.257 0 0 1-5.493-2.804 9.057 9.057 0 0 1-2.112-3.529 9.29 9.29 0 0 1-.152-5.255A9.358 9.358 0 0 1 4.78 6.18c.559-.686 1.403-1.46 2.08-1.904a9.612 9.612 0 0 1 4.22-1.512c.517-.053 1.767-.021 2.28.058m-1.679 3.825a.671.671 0 0 0-.445.369c-.07.155-.074.319-.074 2.964 0 2.632.004 2.81.073 2.96.134.291.373.421.774.419.409-.001.662-.154.773-.466.072-.201.084-5.539.013-5.793-.107-.386-.62-.595-1.114-.453m.039 9.097c-.162.069-.46.347-.543.504-.184.35.069.908.512 1.129a.969.969 0 0 0 .309.103c.299-.002.798-.407.88-.716.043-.158.01-.355-.089-.546-.077-.15-.393-.446-.532-.499a.792.792 0 0 0-.537.025" fill-rule="evenodd" fill="#000"/></svg>