<svg width="24" height="24" fill="none" xmlns="http://www.w3.org/2000/svg"><path d="M11.12 1.047c-1.692.159-3.461.906-4.8 2.025-1.99 1.664-3.16 4.146-3.16 6.704 0 1.088.269 2.077.939 3.444.977 1.996 2.599 4.214 5.077 6.94C9.812 20.86 11.94 23 12 23c.02 0 .528-.49 1.13-1.09 3.189-3.177 5.572-6.235 6.771-8.69.619-1.267.893-2.211.929-3.203.072-1.968-.565-3.902-1.841-5.595-.329-.436-1.164-1.261-1.629-1.609-1.821-1.361-3.998-1.978-6.24-1.766m1.592 1.996a6.89 6.89 0 0 1 3.508 1.418c.367.287.958.885 1.233 1.247a6.959 6.959 0 0 1 1.329 3.191c.088.572.063 1.426-.054 1.863-.495 1.849-2.134 4.387-4.725 7.317-.826.933-1.939 2.101-2.003 2.101-.064 0-1.177-1.168-2.003-2.101-2.599-2.939-4.232-5.467-4.725-7.317-.103-.388-.14-1.234-.075-1.735a7.043 7.043 0 0 1 1.35-3.319c.275-.362.866-.96 1.233-1.247a6.867 6.867 0 0 1 4.932-1.418m-1.221 4.899a2.104 2.104 0 0 0-1.164.848c-.223.35-.297.652-.281 1.152.013.417.023.459.163.74.259.519.606.838 1.131 1.038.195.075.318.092.66.092s.465-.017.66-.092c.525-.2.872-.519 1.131-1.038.14-.281.15-.323.163-.74.012-.372 0-.483-.073-.702a1.987 1.987 0 0 0-1.389-1.3 2.27 2.27 0 0 0-1.001.002" fill-rule="evenodd" fill="#000"/></svg>