<svg width="24" height="25" fill="none" xmlns="http://www.w3.org/2000/svg"><path d="M9.62 1.562c-1.799.18-3.668.952-5.081 2.098-.476.387-1.249 1.186-1.605 1.66-.975 1.3-1.582 2.767-1.84 4.44-.087.567-.098 1.953-.02 2.52.512 3.706 2.987 6.721 6.466 7.874 1.135.377 2.072.51 3.337.475 1.116-.032 2.053-.208 3.026-.57.776-.289 1.785-.841 2.397-1.312l.28-.215 2.44 2.428c1.89 1.881 2.483 2.449 2.632 2.519.408.192.888.008 1.213-.463.121-.177.153-.263.167-.454.014-.198 0-.265-.09-.431-.074-.137-.832-.922-2.518-2.607l-2.412-2.412.258-.346c.968-1.296 1.631-2.988 1.808-4.614.104-.957.029-2.281-.181-3.212-.293-1.302-.996-2.757-1.843-3.821A9.662 9.662 0 0 0 11.96 1.62c-.536-.079-1.812-.111-2.34-.058" fill-rule="evenodd" fill="#000"/></svg>