<svg width="24" height="25" fill="none" xmlns="http://www.w3.org/2000/svg"><path d="M10 4.443c-2.738.044-4.561.133-5.36.261-2.063.33-3.194 1.465-3.498 3.507-.108.729-.153 2.493-.129 5.109.022 2.556.054 3.187.193 3.86.382 1.852 1.51 2.862 3.527 3.157 1.176.172 3.241.241 7.267.241 5.765 0 7.504-.121 8.613-.597 1.429-.614 2.135-1.746 2.308-3.701.024-.275.054-1.607.066-2.96.024-2.616-.021-4.38-.129-5.109-.304-2.042-1.434-3.176-3.498-3.507-.779-.125-2.51-.212-4.863-.244-.856-.011-1.809-.027-2.117-.034a99.626 99.626 0 0 0-2.38.017m4.44 1.997c3.792.086 4.821.175 5.465.477.478.223.722.542.893 1.168.147.535.168.952.189 3.802.031 3.962-.029 4.856-.367 5.541-.283.572-.813.848-1.862.968-2.386.273-11.13.273-13.516 0-1.049-.12-1.579-.396-1.862-.968-.338-.684-.397-1.574-.368-5.538.022-2.856.042-3.267.19-3.805.252-.92.751-1.291 1.938-1.442 1.389-.176 6.012-.277 9.3-.203m-4.365 3.14a.862.862 0 0 0-.512.527c-.028.1-.043.941-.043 2.407v2.255l.126.237c.255.477.643.654 1.086.496.284-.101 3.843-2.158 3.993-2.307.081-.081.183-.246.23-.372.15-.4.098-.69-.17-.95-.114-.111-3.302-1.971-3.858-2.251-.187-.094-.623-.116-.852-.042" fill="#301B0A" fill-rule="evenodd"/></svg>