<svg width="24" height="25" fill="none" xmlns="http://www.w3.org/2000/svg"><path d="M6.854 1.56a6.562 6.562 0 0 0-5.265 3.82c-.333.742-.483 1.334-.552 2.171C1.01 7.883 1 9.737 1.01 12.88c.016 5.187.008 4.979.223 5.78a6.571 6.571 0 0 0 4.747 4.654c.771.188.712.186 6.02.186s5.249.002 6.02-.186a6.784 6.784 0 0 0 1.89-.8c1.366-.835 2.434-2.276 2.857-3.854.215-.801.207-.593.223-5.78.018-5.674.01-5.841-.315-6.82-.696-2.095-2.322-3.672-4.408-4.277-.87-.252-.561-.239-6.087-.247-2.772-.004-5.169.007-5.326.024M17.18 3.577c1.687.298 3.047 1.458 3.579 3.054.246.74.241.604.241 5.869 0 5.281.004 5.187-.246 5.92a4.597 4.597 0 0 1-2.934 2.88c-.626.204-.875.22-3.51.22h-2.43l.01-3.45.01-3.45 1.92-.02c1.849-.019 1.926-.023 2.08-.104a.79.79 0 0 0 .28-.276c.113-.182.12-.219.12-.597 0-.356-.012-.423-.1-.577a.807.807 0 0 0-.28-.28l-.18-.106-1.92-.02-1.92-.02.01-.495c.023-1.2.292-1.99.82-2.41.482-.384 1.379-.633 2.289-.636.928-.002 1.251-.233 1.292-.919.022-.369-.036-.598-.199-.783-.199-.227-.32-.269-.82-.289-1.05-.042-2.25.193-3.072.6-.854.424-1.389.974-1.808 1.858-.307.649-.45 1.374-.515 2.621l-.025.467-.806.013c-.774.012-.813.017-.98.113a.807.807 0 0 0-.28.28c-.096.162-.106.219-.106.58 0 .337.014.426.089.567.19.354.379.413 1.337.413h.754v6.92H8.57c-.938 0-1.418-.017-1.69-.058a4.485 4.485 0 0 1-2.477-1.23 4.535 4.535 0 0 1-1.34-2.532c-.094-.54-.094-9.829-.001-10.365A4.588 4.588 0 0 1 6.78 3.581c.43-.08 9.948-.084 10.4-.004" fill-rule="evenodd" fill="#000"/></svg>