<svg width="24" height="25" fill="none" xmlns="http://www.w3.org/2000/svg"><path d="M11.16 1.545c-2.697.252-5.021 1.315-6.875 3.146-1.807 1.785-2.854 3.918-3.212 6.549-.086.636-.064 2.145.042 2.836.19 1.239.484 2.193 1.006 3.264.548 1.126 1.149 1.967 2.059 2.882.954.96 1.743 1.538 2.891 2.116 1.169.59 2.343.94 3.709 1.106.22.027.769.049 1.22.049.451 0 1-.022 1.22-.049 2.042-.248 3.799-.953 5.44-2.18.692-.518 1.735-1.576 2.2-2.233 1.137-1.605 1.736-3.071 2.025-4.955.071-.466.089-.756.091-1.516.002-.987-.029-1.341-.2-2.21-.516-2.644-2.037-5.038-4.236-6.672a11.002 11.002 0 0 0-4.94-2.041c-.524-.079-1.984-.134-2.44-.092m1.792 2.017a9.016 9.016 0 0 1 7.582 6.11 8.906 8.906 0 0 1 0 5.687 9.895 9.895 0 0 1-.769 1.713l-.17.291-.108-.083a11.116 11.116 0 0 0-1.245-.8c-1.957-1.069-4.22-1.535-6.952-1.434-2.631.099-5.035.891-6.777 2.234l-.108.083-.17-.291A9.024 9.024 0 0 1 6.84 5.142a9.203 9.203 0 0 1 4.32-1.595c.326-.033 1.433-.024 1.792.015M11.31 5.583a3.991 3.991 0 0 0-.394 7.773 4.02 4.02 0 0 0 4.879-2.586c.219-.646.254-1.506.088-2.19-.495-2.041-2.52-3.368-4.573-2.997m1.318 2.038c.357.12.559.252.838.548.462.489.643 1.196.473 1.85-.176.674-.751 1.254-1.416 1.428-1.47.383-2.811-.922-2.463-2.398.084-.354.223-.607.497-.9a1.953 1.953 0 0 1 2.071-.528m.212 9.421c2.006.126 3.671.637 5.033 1.544l.454.303-.133.14c-.424.447-1.276 1.067-1.965 1.43a8.98 8.98 0 0 1-8.458 0c-.689-.363-1.541-.983-1.965-1.43l-.133-.14.454-.303c1.743-1.161 4.12-1.707 6.713-1.544" fill-rule="evenodd" fill="#000"/></svg>